<svg width="800px" height="800px" viewBox="0 0 24 24" fill="none" xmlns="http://www.w3.org/2000/svg">
    <path
        d="M8 7V12C8 12.5523 7.55228 13 7 13C6.44772 13 6 12.5523 6 12V7C6.00458 5.12141 7.76059 4 9.5 4C10.6307 4 11.4437 4.34086 12 4.83532C12.5563 4.34086 13.3693 4 14.5 4C16.2387 4 17.9942 5.12063 18 6.99875V12C18 12.5523 17.5523 13 17 13C16.4477 13 16 12.5523 16 12V6.99875C15.9406 6.24143 15.1596 6 14.5 6C13.8515 6 13.0672 6.24659 13 6.99875V10C13 10.5523 12.5523 11 12 11C11.4477 11 11 10.5523 11 10V7C10.9403 6.23967 10.1531 6 9.5 6C8.85153 6 8.06716 6.24784 8 7Z"
        fill="#0F0F0F" />
    <path fill-rule="evenodd" clip-rule="evenodd"
        d="M16 1H8C4.07296 1 1.08597 4.02365 1 7.98924V13C1 18.1146 4.55833 23 10 23H15.48C16.8717 23 18 21.8717 18 20.48C18 19.1132 16.8655 18.0336 15.5 18C15.2181 17.9931 14.8836 17.9965 14.5149 18.0004C12.4361 18.022 9.26795 18.055 8.28321 16.2962C12.8078 17.1259 23 18.5 23 11V8C22.9065 4.03533 19.9339 1 16 1ZM3 13V7.98924C3.11577 5.11381 5.1386 3 8 3H16C18.8671 3 20.8776 5.12583 21 8V11C21 17 10.344 14.8052 7.24254 14.0299C6.62138 13.8746 6 14.3597 6 15C6 16.0843 6.27531 17.0111 6.8592 17.7553C8.53489 19.8912 11.8962 19.9238 14.5184 19.9492C14.8582 19.9525 15.1857 19.9557 15.4954 19.9633C15.7768 19.9703 16 20.1994 16 20.48C16 20.7672 15.7672 21 15.48 21H10C5.65362 21 3 17.016 3 13Z"
        fill="#0F0F0F" />
</svg>